<?xml version="1.0" encoding="utf-8"?>
<!-- Generator: Adobe Illustrator 16.0.0, SVG Export Plug-In . SVG Version: 6.00 Build 0)  -->
<!DOCTYPE svg PUBLIC "-//W3C//DTD SVG 1.1//EN" "http://www.w3.org/Graphics/SVG/1.1/DTD/svg11.dtd">
<svg version="1.1" id="Ebene_1" xmlns="http://www.w3.org/2000/svg" xmlns:xlink="http://www.w3.org/1999/xlink" x="0px" y="0px"
   width="512px" height="512px" viewBox="0 0 512 512" enable-background="new 0 0 512 512" xml:space="preserve">
<path id="puzzle-9" fill="#3C3636" d="M200.188,32.75v150.687c0,13.98,3.615,26.09,10.429,35.037
  c15.279,20.012,45.493,20.04,66.295-0.854c1.544-1.536,3.053-3.143,4.561-4.769c7.667-8.167,11.883-12.664,24.654-12.664
  c17.532,0,42.895,19.876,42.895,55.813c0,35.938-25.362,55.813-42.895,55.813c-12.771,0-16.987-4.504-24.654-12.663
  c-1.508-1.617-3.017-3.233-4.507-4.705c-10.498-10.556-23.109-16.368-35.518-16.368c-19.875,0-41.259,15.787-41.259,50.488V479.25
  h-74.417c-51.379,0-93.021-41.641-93.021-93.02V125.771c0-51.37,41.642-93.021,93.021-93.021H200.188z"/>
<path fill="#606078" d="M237.396,32.75v150.687c0,12.863,5.976,15.407,16.931,3.969c9.121-9.729,22.913-24.427,51.799-24.427
  c38.676,0,80.1,37.381,80.1,93.021c0,55.63-41.424,93.021-80.1,93.021c-28.887,0-42.679-14.695-51.799-24.417
  c-11.681-12.21-16.931-6.577-16.931,3.961V479.25h148.832c51.381,0,93.022-41.641,93.022-93.02V125.771
  c0-51.37-41.642-93.021-93.022-93.021H237.396z"/>
</svg>

