<svg version="1" xmlns="http://www.w3.org/2000/svg" width="933.333" height="933.333" viewBox="0 0 700.000000 700.000000"><path d="M325.5 49.6c-1.6.2-7.3.9-12.5 1.5s-15.1 2.1-22 3.5C173.7 77.8 80.7 169.3 55.5 286.2c-5 23.7-6 33.4-6 63.8s1 40.1 6 63.8C80.4 529 171 619.6 286.2 644.5c23.7 5 33.4 6 63.8 6s40.1-1 63.8-6C529 619.6 619.6 529 644.5 413.8c5-23.7 6-33.4 6-63.8s-1-40.1-6-63.8c-21.6-99.9-92.9-182.4-189-218.4-20.3-7.6-38.4-12.3-62-16-10-1.5-19.1-2.1-39-2.3-14.3-.2-27.3-.1-29 .1zm56.9 44c27.9 3.4 55.4 11.7 81.1 24.3 28 13.8 46.8 27.3 69 49.6 22.3 22.2 35.8 41 49.6 69 17.9 36.3 26 71.9 26 113.5 0 41.6-8.1 77.2-26 113.5-13.8 28-27.3 46.8-49.6 69-22.2 22.3-41 35.8-69 49.6-36.3 17.9-71.9 26-113.5 26-41.6 0-77.2-8.1-113.5-26-28-13.8-46.8-27.3-69-49.6-22.3-22.2-35.8-41-49.6-69-17.9-36.3-26-71.9-26-113.5 0-41.6 8.1-77.2 26-113.5 13.8-28 27.3-46.8 49.6-69 22.2-22.3 41-35.8 69-49.6 45.3-22.3 94.8-30.5 145.9-24.3z"/></svg>